# xmcd
#
# Track frame offsets:
#	150
#	120488
#	147916
#	206572
#	328780
#
# Disc length: 4631 seconds
#
# Revision: 1
# Processed by: cddbd v1.5.2PL0 Copyright (c) Steve Scherf et al.
# Submitted via: audiograbber 1.83.01
#
DISCID=46121505
DTITLE=Grateful Dead - 69-08-23 Pelletier's Farm, St Helens OR
DYEAR=1900
DGENRE=
TTITLE0=Dark Star
TTITLE1=St Stephen
TTITLE2=The Eleven
TTITLE3=Turn On Your Lovelight
TTITLE4=We Bid You Goodnight
EXTD=
EXTT0=
EXTT1=
EXTT2=
EXTT3=
EXTT4=
PLAYORDER=
